# xmcd CD database file
#
# Track frame offsets:
#	150
#	14052
#	32273
#	46279
#	76465
#	79862
#	93793
#	97671
#	110667
#
# Disc length: 2020 seconds
#
# Revision: 0
# Processed by: cddbd v1.5.1PL0 Copyright (c) Steve Scherf et al.
# Submitted via: CDex 1.50
#
DISCID=5c07e209
DTITLE=Lawhead - Warm Day
DYEAR=2003
DGENRE=Jazz
TTITLE0=Tropical Beach
TTITLE1=Afro Blue
TTITLE2=Brotherhood Of Man
TTITLE3=Warm Day
TTITLE4=Sax Freak
TTITLE5=Let's Get It On
TTITLE6=Dual Flute
TTITLE7=Morena's Vision
TTITLE8=Tropical Horns
EXTD=YEAR: 2003
EXTT0=
EXTT1=
EXTT2=
EXTT3=
EXTT4=
EXTT5=
EXTT6=
EXTT7=
EXTT8=
PLAYORDER=
